<svg width="34" height="22" viewBox="0 0 34 22" fill="none" xmlns="http://www.w3.org/2000/svg">
<path fill-rule="evenodd" clip-rule="evenodd" d="M14.0792 3.09301C13.2036 1.59953 11.0147 1.59953 10.1391 3.09302L2.30816 16.4504C1.43258 17.9439 2.52706 19.8107 4.27821 19.8107H14.0599H19.9401H29.7218C31.4729 19.8107 32.5674 17.9439 31.6918 16.4504L23.8609 3.09301C22.9853 1.59953 20.7964 1.59953 19.9208 3.09302L17 8.07509L14.0792 3.09301Z" stroke="url(#paint0_linear_8_243)" stroke-width="3"/>
<path d="M17.3378 13.5779C17.3378 13.959 17.2075 14.2328 17.0885 14.3752C17.0505 14.4205 17.0206 14.4466 16.9999 14.4611C16.9793 14.4466 16.9494 14.4205 16.9114 14.3752C16.7924 14.2328 16.6621 13.959 16.6621 13.5779C16.6621 13.5944 16.6624 13.5931 16.6671 13.5726C16.6801 13.5157 16.7268 13.3109 16.8945 12.9291C16.9274 12.8542 16.9626 12.7776 16.9999 12.6996C17.0373 12.7776 17.0725 12.8542 17.1054 12.9291C17.2731 13.3109 17.3198 13.5157 17.3328 13.5726C17.3375 13.5931 17.3378 13.5944 17.3378 13.5779ZM16.9673 14.478C16.9672 14.4775 16.9705 14.4759 16.9774 14.4747C16.9708 14.4778 16.9674 14.4784 16.9673 14.478ZM17.0225 14.4747C17.0294 14.4759 17.0327 14.4775 17.0326 14.478C17.0325 14.4784 17.0291 14.4778 17.0225 14.4747Z" stroke="url(#paint1_linear_8_243)" stroke-width="5"/>
<defs>
<linearGradient id="paint0_linear_8_243" x1="17" y1="1.9729" x2="17" y2="19.8107" gradientUnits="userSpaceOnUse">
<stop stop-color="#5B3962"/>
<stop offset="1" stop-color="#1CB174"/>
</linearGradient>
<linearGradient id="paint1_linear_8_243" x1="17" y1="8.5" x2="16.9999" y2="16.9729" gradientUnits="userSpaceOnUse">
<stop stop-color="#446568"/>
<stop offset="1" stop-color="#21A672"/>
</linearGradient>
</defs>
</svg>
